<?xml version="1.0" encoding="UTF-8"?>
<svg xmlns="http://www.w3.org/2000/svg" xmlns:xlink="http://www.w3.org/1999/xlink" width="192pt" height="187.5pt" viewBox="0 0 192 187.5" version="1.1">
<g id="surface1">
<path style=" stroke:none;fill-rule:nonzero;fill:rgb(8.627319%,8.627319%,7.843018%);fill-opacity:1;" d="M 96 0 C 42.988281 0 0 42.980469 0 96 C 0 138.417969 27.507812 174.402344 65.652344 187.09375 C 70.449219 187.984375 72.210938 185.011719 72.210938 182.476562 C 72.210938 180.1875 72.121094 172.625 72.082031 164.605469 C 45.371094 170.410156 39.738281 153.277344 39.738281 153.277344 C 35.371094 142.179688 29.078125 139.230469 29.078125 139.230469 C 20.367188 133.273438 29.734375 133.394531 29.734375 133.394531 C 39.375 134.070312 44.449219 143.289062 44.449219 143.289062 C 53.011719 157.964844 66.910156 153.722656 72.386719 151.269531 C 73.25 145.0625 75.738281 140.828125 78.480469 138.429688 C 57.160156 136.003906 34.742188 127.773438 34.742188 90.988281 C 34.742188 80.503906 38.492188 71.941406 44.636719 65.21875 C 43.636719 62.800781 40.351562 53.035156 45.566406 39.8125 C 45.566406 39.8125 53.625 37.234375 71.972656 49.652344 C 79.628906 47.527344 87.84375 46.460938 96 46.421875 C 104.160156 46.460938 112.378906 47.527344 120.050781 49.652344 C 138.375 37.234375 146.425781 39.8125 146.425781 39.8125 C 151.648438 53.035156 148.363281 62.800781 147.363281 65.21875 C 153.519531 71.941406 157.246094 80.503906 157.246094 90.988281 C 157.246094 127.859375 134.785156 135.976562 113.410156 138.355469 C 116.851562 141.332031 119.921875 147.175781 119.921875 156.132812 C 119.921875 168.976562 119.808594 179.316406 119.808594 182.476562 C 119.808594 185.03125 121.539062 188.027344 126.40625 187.082031 C 164.527344 174.375 192 138.402344 192 96 C 192 42.980469 149.019531 0 96 0 Z M 35.957031 136.753906 C 35.742188 137.230469 34.992188 137.375 34.308594 137.046875 C 33.613281 136.734375 33.222656 136.085938 33.449219 135.605469 C 33.65625 135.113281 34.40625 134.976562 35.101562 135.308594 C 35.800781 135.621094 36.195312 136.277344 35.957031 136.753906 Z M 40.675781 140.96875 C 40.21875 141.394531 39.324219 141.195312 38.71875 140.523438 C 38.089844 139.855469 37.972656 138.960938 38.4375 138.53125 C 38.910156 138.105469 39.777344 138.304688 40.40625 138.972656 C 41.035156 139.652344 41.15625 140.539062 40.675781 140.96875 Z M 43.917969 146.359375 C 43.328125 146.769531 42.367188 146.386719 41.773438 145.53125 C 41.183594 144.679688 41.183594 143.652344 41.785156 143.242188 C 42.382812 142.832031 43.328125 143.203125 43.929688 144.050781 C 44.519531 144.917969 44.519531 145.941406 43.917969 146.359375 Z M 49.394531 152.601562 C 48.871094 153.183594 47.75 153.027344 46.929688 152.234375 C 46.089844 151.460938 45.855469 150.363281 46.382812 149.78125 C 46.917969 149.203125 48.042969 149.363281 48.871094 150.152344 C 49.703125 150.921875 49.957031 152.03125 49.394531 152.601562 Z M 56.476562 154.710938 C 56.246094 155.464844 55.164062 155.804688 54.078125 155.484375 C 52.992188 155.15625 52.28125 154.277344 52.5 153.515625 C 52.726562 152.757812 53.8125 152.402344 54.90625 152.746094 C 55.992188 153.070312 56.703125 153.945312 56.476562 154.710938 Z M 64.535156 155.605469 C 64.5625 156.398438 63.640625 157.054688 62.5 157.066406 C 61.351562 157.09375 60.421875 156.453125 60.410156 155.671875 C 60.410156 154.875 61.3125 154.222656 62.460938 154.203125 C 63.601562 154.183594 64.535156 154.816406 64.535156 155.605469 Z M 72.453125 155.300781 C 72.589844 156.074219 71.796875 156.867188 70.660156 157.078125 C 69.546875 157.28125 68.515625 156.804688 68.375 156.039062 C 68.234375 155.246094 69.042969 154.453125 70.15625 154.25 C 71.292969 154.050781 72.308594 154.515625 72.453125 155.300781 Z M 72.453125 155.300781 "/>
</g>
</svg>
